<svg xmlns="http://www.w3.org/2000/svg" viewBox="0 0 100 100"><defs><style>.cls-1,.cls-10,.cls-11,.cls-2,.cls-4{fill:#fff;}.cls-10,.cls-11,.cls-2,.cls-3,.cls-4,.cls-5,.cls-6{stroke:#91bfbe;}.cls-11,.cls-2{stroke-miterlimit:10;}.cls-2,.cls-3{stroke-width:0.5px;}.cls-3,.cls-5,.cls-8{fill:#9cc;}.cls-10,.cls-3,.cls-4,.cls-5,.cls-6{stroke-linejoin:bevel;}.cls-4,.cls-5,.cls-6{stroke-width:0.5px;}.cls-6{fill:none;}.cls-7{fill:#ededed;}.cls-9{fill:#91bfbe;}.cls-10,.cls-11{stroke-width:0.53px;}</style></defs><title>brand-icon</title><g id="Layer_2" data-name="Layer 2"><g id="Layer_1-2" data-name="Layer 1"><rect class="cls-1" width="100" height="100"/><polygon class="cls-2" points="77.81 24.56 77.81 86.56 21.81 86.56 21.81 12.56 65.81 12.56 77.81 24.56"/><polygon class="cls-3" points="65.81 12.56 77.81 24.56 65.81 24.56 65.81 12.56"/><rect class="cls-4" x="38.19" y="49.7" width="44" height="26"/><polygon class="cls-5" points="38.19 49.7 60.19 62.7 82.19 49.7 38.19 49.7"/><line class="cls-6" x1="21.81" y1="41.19" x2="21.81" y2="47.22"/><polygon class="cls-1" points="21.81 41.78 17.81 49.44 25.81 49.44 21.81 41.78"/><polygon class="cls-7" points="23.15 49.44 21.81 41.78 25.81 49.44 23.15 49.44"/><path class="cls-1" d="M17.81,81.63h8a0,0,0,0,1,0,0v1.81a4,4,0,0,1-4,4h0a4,4,0,0,1-4-4V81.63A0,0,0,0,1,17.81,81.63Z"/><path class="cls-7" d="M25.81,81.63v1.81c-.64,3.07-2.24,3.73-4,4,0,0,1.34-.59,1.34-5.81Z"/><rect class="cls-8" x="17.81" y="49.44" width="8" height="32.19"/><path class="cls-9" d="M21.81,42.92l3.47,6.65V83.44a3.48,3.48,0,1,1-7,0V49.57l3.48-6.65m0-1.14-4,7.66v34a4,4,0,0,0,4,4h0a4,4,0,0,0,4-4v-34l-4-7.66Z"/><line class="cls-10" x1="17.81" y1="81.63" x2="25.81" y2="81.63"/><polygon class="cls-9" points="20.89 44.1 21.81 42.35 22.72 44.1 20.89 44.1"/><path class="cls-9" d="M21.81,42.92l.47.91h-1l.48-.91m0-1.14-1.35,2.58h2.69l-1.34-2.58Z"/><line class="cls-11" x1="18.21" y1="49.56" x2="25.4" y2="49.56"/><rect class="cls-9" x="23.15" y="49.44" width="2.65" height="32.19"/><rect class="cls-7" x="25.36" y="20.67" width="32.37" height="2.11" rx="1.06"/><rect class="cls-7" x="25.36" y="24.56" width="32.37" height="2.11" rx="1.06"/><rect class="cls-7" x="25.36" y="28.44" width="32.37" height="2.11" rx="1.06"/><rect class="cls-7" x="25.36" y="32.33" width="16.59" height="2.11" rx="1.06"/></g></g></svg>