<svg xmlns="http://www.w3.org/2000/svg" xmlns:xlink="http://www.w3.org/1999/xlink" viewBox="0 0 1116.3 229.48"><defs><style>.cls-1,.cls-10{fill:none;}.cls-2{fill:#f6f6f6;}.cls-3,.cls-5,.cls-7,.cls-9{fill:#9cc;}.cls-10,.cls-13,.cls-14,.cls-3,.cls-6,.cls-7,.cls-8,.cls-9{stroke:#91bfbe;}.cls-14,.cls-3,.cls-6{stroke-miterlimit:10;}.cls-3,.cls-6,.cls-7{stroke-width:0.25px;}.cls-4{fill:#91bfbe;}.cls-11,.cls-13,.cls-14,.cls-6,.cls-8{fill:#fff;}.cls-10,.cls-13,.cls-7,.cls-8,.cls-9{stroke-linejoin:bevel;}.cls-10,.cls-8,.cls-9{stroke-width:0.25px;}.cls-12{fill:#ededed;}.cls-13,.cls-14{stroke-width:0.27px;}.cls-15{fill:url(#tlo-strona);}</style><pattern id="tlo-strona" data-name="tlo-strona" width="167.15" height="139.03" patternUnits="userSpaceOnUse" viewBox="0 0 167.16 139.03"><rect class="cls-1" width="167.15" height="139.03"/><path class="cls-2" d="M148.3,45l13.22,22.36L139.64,80.26S159.19,63.4,148.3,45Z"/><path class="cls-3" d="M150,44.2,164.3,68.45a2.17,2.17,0,0,1-.76,3L130.1,91.19a2.17,2.17,0,0,1-3-.77L112.79,66.17a2.17,2.17,0,0,1,.77-3L147,43.43A2.17,2.17,0,0,1,150,44.2ZM148.3,45l-34,20.11,13.21,22.36,34-20.11Z"/><polygon class="cls-3" points="151.68 78.44 141.96 84.18 144.59 89.41 154.99 83.26 151.68 78.44"/><path class="cls-3" d="M156.71,82.24l-13.79,8.15a.47.47,0,0,0-.16.65l.06.12a.08.08,0,0,0,.1,0l14.43-8.53a.07.07,0,0,0,0-.09l-.1-.18A.4.4,0,0,0,156.71,82.24Z"/><polygon class="cls-4" points="141.96 84.18 148.91 86.85 154.99 83.26 151.68 78.44 141.96 84.18"/><path class="cls-4" d="M151,85.65l5.76-3.41a.4.4,0,0,1,.56.14l.14.24L151.69,86Z"/><path class="cls-5" d="M135.29,70.87l-6.7,1,3.91-5.68-1.11-1.89-5.52,8.53.67,1.12,9.86-1.17Z"/><path class="cls-5" d="M135.59,59.74l2.51,14.05,2.18-1.29-2.51-14Z"/><path class="cls-5" d="M144.45,68l5.78-8.07-.67-1.12-10.13.71,1.12,1.89,6.86-.68-4.08,5.39Z"/><polygon class="cls-6" points="87.45 96.75 103.47 123.88 78.98 138.36 59.84 105.98 79.09 94.61 87.45 96.75"/><polygon class="cls-7" points="79.09 94.61 87.45 96.75 82.2 99.86 79.09 94.61"/><polygon class="cls-8" points="102.59 118 83.34 129.37 76.62 118 95.87 106.62 102.59 118"/><polygon class="cls-9" points="76.62 118 89.6 118 95.87 106.62 76.62 118"/><line class="cls-10" x1="67.25" y1="118.51" x2="68.81" y2="121.15"/><polygon class="cls-11" points="67.4 118.77 67.63 123.16 71.13 121.09 67.4 118.77"/><polygon class="cls-12" points="69.97 121.77 67.4 118.77 71.13 121.09 69.97 121.77"/><path class="cls-11" d="M79.21,138.74h0a2,2,0,0,1-2.79-.71l-.47-.79,3.5-2.07.47.79A2,2,0,0,1,79.21,138.74Z"/><path class="cls-12" d="M79.45,135.17l.47.79a2.18,2.18,0,0,1-.71,2.78s.43-.6-.92-2.89Z"/><polygon class="cls-5" points="79.45 135.17 75.95 137.24 67.63 123.16 71.13 121.09 79.45 135.17"/><path class="cls-4" d="M67.7,119.27l.2,3.8,8.75,14.82a1.76,1.76,0,0,0,2.42.62,1.76,1.76,0,0,0,.62-2.41l-8.76-14.82-3.23-2m-.3-.5,3.73,2.32L79.92,136a2,2,0,0,1-.71,2.78,2,2,0,0,1-1,.29,2,2,0,0,1-1.75-1l-8.79-14.88-.23-4.38Z"/><line class="cls-13" x1="75.95" y1="137.24" x2="79.45" y2="135.17"/><polygon class="cls-4" points="67.55 119.02 68.4 119.55 67.6 120.02 67.55 119.02"/><path class="cls-4" d="M67.7,119.27l0,.52.42-.25-.44-.27m-.3-.5,1.26.78-1.18.7-.08-1.48Z"/><line class="cls-14" x1="67.84" y1="123.1" x2="70.98" y2="121.24"/><polygon class="cls-4" points="79.45 135.17 78.29 135.85 69.97 121.77 71.13 121.09 79.45 135.17"/><path class="cls-12" d="M77.74,101.44,64.5,109.26a.53.53,0,0,1-.73-.19h0a.53.53,0,0,1,.19-.73l13.24-7.82a.53.53,0,0,1,.73.19h0A.53.53,0,0,1,77.74,101.44Z"/><path class="cls-12" d="M78.75,103.14,65.51,111a.53.53,0,0,1-.73-.18h0A.54.54,0,0,1,65,110l13.24-7.82a.54.54,0,0,1,.74.19h0A.54.54,0,0,1,78.75,103.14Z"/><path class="cls-12" d="M79.75,104.84l-13.23,7.83a.55.55,0,0,1-.74-.19h0a.54.54,0,0,1,.19-.74l13.24-7.82a.53.53,0,0,1,.73.19h0A.53.53,0,0,1,79.75,104.84Z"/><path class="cls-12" d="M73.86,110.62l-6.34,3.75a.54.54,0,0,1-.73-.19h0a.54.54,0,0,1,.19-.74l6.33-3.74a.54.54,0,0,1,.74.19h0A.54.54,0,0,1,73.86,110.62Z"/><path class="cls-2" d="M78.11,7.56l-3.6,25.72L49.35,29.76S75.15,28.75,78.11,7.56Z"/><path class="cls-3" d="M79.91,8,76,35.89a2.18,2.18,0,0,1-2.46,1.85L35.08,32.36a2.19,2.19,0,0,1-1.86-2.46L37.13,2A2.18,2.18,0,0,1,39.59.15L78.05,5.54A2.18,2.18,0,0,1,79.91,8Zm-1.8-.43L39,2.08,35.37,27.8l39.14,5.48Z"/><polygon class="cls-3" points="59.9 35.83 48.72 34.27 47.52 39.99 59.48 41.66 59.9 35.83"/><path class="cls-3" d="M61.47,41.94,45.6,39.72a.48.48,0,0,0-.54.41v.13a.07.07,0,0,0,.05.08l16.61,2.32a.06.06,0,0,0,.07-.06l0-.2A.41.41,0,0,0,61.47,41.94Z"/><polygon class="cls-4" points="48.72 34.27 52.49 40.69 59.48 41.66 59.9 35.83 48.72 34.27"/><path class="cls-4" d="M54.83,41l6.63.93a.41.41,0,0,1,.35.46l0,.27-6.58-.92Z"/><path class="cls-5" d="M51.8,19.7,46,16.28l6.59-2,.31-2.17-9.63,3.23-.18,1.29,8.44,5.23Z"/><path class="cls-5" d="M59,11.18,52.17,23.74l2.51.35,6.79-12.56Z"/><path class="cls-5" d="M60.75,23.16l9.55-2.71.18-1.3L62.12,13.4l-.31,2.18,5.8,3.74L61.05,21Z"/><polygon class="cls-6" points="128.65 11.25 124.28 42.45 96.1 38.51 101.32 1.27 123.46 4.37 128.65 11.25"/><polygon class="cls-7" points="123.46 4.37 128.65 11.25 122.61 10.41 123.46 4.37"/><polygon class="cls-8" points="127.26 37.3 105.11 34.2 106.95 21.12 129.09 24.22 127.26 37.3"/><polygon class="cls-9" points="106.95 21.12 117.1 29.21 129.09 24.22 106.95 21.12"/><line class="cls-10" x1="99.3" y1="15.68" x2="98.87" y2="18.71"/><polygon class="cls-11" points="99.26 15.97 96.7 19.55 100.73 20.11 99.26 15.97"/><polygon class="cls-12" points="99.4 19.93 99.26 15.97 100.73 20.11 99.4 19.93"/><path class="cls-11" d="M96,39h0a2,2,0,0,1-1.73-2.3l.13-.91,4,.56-.13.91A2,2,0,0,1,96,39Z"/><path class="cls-12" d="M98.46,36.31l-.13.91A2.19,2.19,0,0,1,96,39s.72-.21,1.09-2.84Z"/><polygon class="cls-5" points="98.46 36.31 94.44 35.75 96.7 19.55 100.73 20.11 98.46 36.31"/><path class="cls-4" d="M99.18,16.55,97,19.65,94.57,36.7a1.77,1.77,0,0,0,1.51,2l.24,0a1.78,1.78,0,0,0,1.75-1.52l2.38-17-1.27-3.59m.08-.58,1.47,4.14-2.4,17.11a2,2,0,0,1-2,1.76L96,39a2,2,0,0,1-1.73-2.3L96.7,19.55,99.26,16Z"/><line class="cls-13" x1="94.44" y1="35.75" x2="98.46" y2="36.31"/><polygon class="cls-4" points="98.63 17.08 99.22 16.26 99.55 17.21 98.63 17.08"/><path class="cls-4" d="M99.18,16.55l-.31.43.48.06-.17-.49m.08-.58.49,1.4-1.35-.19L99.26,16Z"/><line class="cls-14" x1="96.9" y1="19.64" x2="100.52" y2="20.14"/><polygon class="cls-4" points="98.46 36.31 97.13 36.12 99.4 19.93 100.73 20.11 98.46 36.31"/><path class="cls-12" d="M118.14,8.87,102.92,6.74a.53.53,0,0,1-.46-.61h0a.53.53,0,0,1,.61-.45l15.22,2.13a.53.53,0,0,1,.46.6h0A.53.53,0,0,1,118.14,8.87Z"/><path class="cls-12" d="M117.87,10.83,102.64,8.69a.52.52,0,0,1-.45-.6h0a.54.54,0,0,1,.6-.46L118,9.77a.54.54,0,0,1,.46.6h0A.55.55,0,0,1,117.87,10.83Z"/><path class="cls-12" d="M117.6,12.78l-15.23-2.13a.54.54,0,0,1-.46-.6h0a.53.53,0,0,1,.61-.46l15.23,2.13a.53.53,0,0,1,.45.61h0A.52.52,0,0,1,117.6,12.78Z"/><path class="cls-12" d="M109.38,13.63l-7.29-1a.53.53,0,0,1-.45-.61h0a.53.53,0,0,1,.6-.45l7.29,1a.54.54,0,0,1,.46.6h0A.53.53,0,0,1,109.38,13.63Z"/><g id="mobile"><path class="cls-5" d="M155.67,11.77,162.79,28a.9.9,0,0,1-.46,1.17l-9.94,4.35a.89.89,0,0,1-1.16-.46l-7.12-16.27a.88.88,0,0,1,.46-1.16l9.94-4.35A.87.87,0,0,1,155.67,11.77Zm5.14,16.16-6.4-14.65-8.32,3.64,6.41,14.65,8.31-3.64Z"/><path class="cls-5" d="M157.56,9.81,167,31.29a2.38,2.38,0,0,1-1.22,3.12l-11.83,5.17a2.38,2.38,0,0,1-3.12-1.22L141.4,16.88a2.36,2.36,0,0,1,1.22-3.11l11.83-5.18A2.37,2.37,0,0,1,157.56,9.81ZM165.34,32l-9.4-21.47a.59.59,0,0,0-.79-.31l-11.82,5.17a.59.59,0,0,0-.31.78l9.4,21.48a.58.58,0,0,0,.78.3L165,32.78a.59.59,0,0,0,.31-.78Z"/><path class="cls-5" d="M160.62,32.32a.9.9,0,0,1-.46,1.17L157,34.86a.88.88,0,0,1-.71-1.62l3.14-1.37A.89.89,0,0,1,160.62,32.32Z"/></g><g id="mobile-2" data-name="mobile"><path class="cls-5" d="M54.37,65.73,48.84,82.6a.89.89,0,0,1-1.12.57l-10.3-3.38a.89.89,0,0,1-.57-1.12L42.39,61.8a.87.87,0,0,1,1.11-.56l10.31,3.38A.87.87,0,0,1,54.37,65.73ZM47.43,81.21l5-15.19L43.8,63.19l-5,15.19,8.62,2.83Z"/><path class="cls-5" d="M57.08,65.54,49.77,87.81a2.36,2.36,0,0,1-3,1.51l-12.27-4a2.37,2.37,0,0,1-1.51-3L40.32,60a2.36,2.36,0,0,1,3-1.51l12.27,4A2.37,2.37,0,0,1,57.08,65.54Zm-9,21.72L55.4,65a.6.6,0,0,0-.38-.75l-12.26-4a.6.6,0,0,0-.75.38L34.7,82.86a.6.6,0,0,0,.38.75l12.27,4a.59.59,0,0,0,.74-.38Z"/><path class="cls-5" d="M44.36,84.35a.89.89,0,0,1-1.12.57L40,83.85a.87.87,0,0,1-.56-1.12.88.88,0,0,1,1.11-.56l3.26,1.07A.88.88,0,0,1,44.36,84.35Z"/></g><g id="message"><path class="cls-5" d="M100.22,65.87,89.31,79.13a1.37,1.37,0,0,1-1.93.19L84,76.54l-8.47,1.52a1.41,1.41,0,0,1-1.11-.29,1.85,1.85,0,0,1-.31-.37,1.37,1.37,0,0,1,.13-1.57l3.6-4.37L65.48,61.29a1.37,1.37,0,0,1-.18-1.93L76.2,46.1a1.36,1.36,0,0,1,1.93-.18l21.9,18A1.37,1.37,0,0,1,100.22,65.87ZM88.08,76.32l9.16-11.15L77.45,48.9,68.29,60,80.65,70.2a1.37,1.37,0,0,1,.18,1.93l-2.1,2.56,5.43-1a1.38,1.38,0,0,1,1.11.29l2.81,2.31Z"/><path class="cls-5" d="M77.17,54.82a1.37,1.37,0,0,1,1.93-.18l7.55,6.21A1.37,1.37,0,0,1,84.91,63l-7.55-6.21A1.37,1.37,0,0,1,77.17,54.82Z"/><path class="cls-5" d="M88,65a1.39,1.39,0,0,1,.3-1,1.36,1.36,0,0,1,.93-.49,1.38,1.38,0,0,1,1,.3,1.37,1.37,0,0,1,.19,1.92,1.32,1.32,0,0,1-.92.49,1.36,1.36,0,0,1-1-.3A1.4,1.4,0,0,1,88,65Z"/></g><g id="Settings_Glyph" data-name="Settings Glyph"><g id="Rectangle_4" data-name="Rectangle 4"><path class="cls-5" d="M145.85,121.71a11.05,11.05,0,0,1-.52,1.23l2.74,4.92-3.36,3.36-4.92-2.73a13.26,13.26,0,0,1-1.23.51L137,134.41h-4.75L130.72,129a12.21,12.21,0,0,1-1.23-.51l-4.92,2.73-3.36-3.36,2.73-4.92a12.21,12.21,0,0,1-.51-1.23L118,120.16v-4.74l5.41-1.55a13.26,13.26,0,0,1,.51-1.23l-2.73-4.92,3.36-3.36,4.92,2.73a12.21,12.21,0,0,1,1.23-.51l1.54-5.41H137l1.55,5.41a13.26,13.26,0,0,1,1.23.51l4.92-2.73,3.36,3.36-2.74,4.92a11.05,11.05,0,0,1,.52,1.23l5.41,1.55v4.74Zm-5.67-3.92a5.54,5.54,0,1,0-5.54,5.54A5.54,5.54,0,0,0,140.18,117.79Z"/></g></g><g id="Settings_Glyph-2" data-name="Settings Glyph"><g id="Rectangle_4-2" data-name="Rectangle 4"><path class="cls-5" d="M27.83,54.81A13.26,13.26,0,0,1,27.32,56L30.05,61l-3.36,3.35-4.92-2.73a9.38,9.38,0,0,1-1.23.51L19,67.51H14.25L12.7,62.09a9.38,9.38,0,0,1-1.23-.51L6.55,64.31,3.19,61,5.92,56a13.26,13.26,0,0,1-.51-1.23L0,53.26V48.51L5.41,47a13.26,13.26,0,0,1,.51-1.23L3.19,40.81l3.36-3.35,4.92,2.73a11,11,0,0,1,1.23-.51l1.55-5.41H19l1.55,5.41a11,11,0,0,1,1.23.51l4.92-2.73,3.36,3.35-2.73,4.92A13.26,13.26,0,0,1,27.83,47l5.41,1.55v4.75Zm-5.67-3.92a5.54,5.54,0,1,0-5.54,5.53A5.54,5.54,0,0,0,22.16,50.89Z"/></g></g><g id="todo_list" data-name="todo list"><g id="_427-todo-list.png" data-name="427-todo-list.png"><path class="cls-5" d="M29.18,107.4a1.21,1.21,0,0,1,.69,1.57L25.1,121.16a1.2,1.2,0,0,1-1.57.69l-5.76-2.25a1.21,1.21,0,0,1-.69-1.58l.37-.94a1.2,1.2,0,0,1,1.57-.69l3.68,1.44,4-10.11a1.2,1.2,0,0,1,1.57-.69Zm4.53-8.26,8.81,20.12A4.88,4.88,0,0,1,40,125.68L21,134a4.87,4.87,0,0,1-6.42-2.51l-8.8-20.11A4.87,4.87,0,0,1,8.3,105l2.21-1L10,102.86a1.22,1.22,0,0,1,.63-1.61l1.12-.49a1.22,1.22,0,0,1,1.61.63l.49,1.12,2.24-1-.49-1.12a1.22,1.22,0,0,1,.63-1.61l1.12-.49a1.22,1.22,0,0,1,1.61.63l.49,1.12,2.23-1L21.21,98a1.24,1.24,0,0,1,.63-1.62L23,95.86a1.22,1.22,0,0,1,1.61.63l.49,1.12,2.23-1A4.88,4.88,0,0,1,33.71,99.14Zm5.48,21.57-8.8-20.11a1.22,1.22,0,0,0-1.61-.62l-2.24,1,.49,1.12a1.21,1.21,0,0,1-.63,1.61l-1.12.49a1.23,1.23,0,0,1-1.61-.63l-.49-1.12-2.23,1,.49,1.12a1.22,1.22,0,0,1-.63,1.61l-1.12.49a1.22,1.22,0,0,1-1.61-.63l-.49-1.12-2.23,1,.49,1.11a1.23,1.23,0,0,1-.63,1.61l-1.12.49a1.21,1.21,0,0,1-1.61-.63L12,107.31l-2.24,1a1.22,1.22,0,0,0-.63,1.61L17.94,130a1.22,1.22,0,0,0,1.61.63l19-8.32a1.22,1.22,0,0,0,.63-1.61Z"/></g></g></pattern></defs><title>tlo</title><g id="Layer_2" data-name="Layer 2"><g id="Layer_1-2" data-name="Layer 1"><polygon class="cls-15" points="1116.3 122.37 1098.07 96.15 1097.18 58.37 1049.18 50.37 1021.63 72.3 975.41 58.07 955.26 39.7 918.52 58.67 884.15 5.43 843.85 10.07 823.7 52.24 793.48 52.24 772.15 4.15 722.37 9.48 724.74 50.96 666.67 52.24 618.07 52.24 582.52 56.89 538.07 3.56 501.33 15.41 489.48 57.48 439.7 49.78 424.89 85.93 405.93 104.48 381.04 100.74 353.19 60.44 338.37 12.44 288 11.26 285.04 48 251.85 58.07 218.67 45.63 183.11 58.07 160 60.44 125.04 48 115.56 18.96 96.59 0 59.63 21.93 50.07 44.81 15.63 79.04 6.67 101.78 0 183.11 6.07 197.48 34.52 229.48 1098.07 229.48 1114.07 180.74 1116.3 122.37"/></g></g></svg>