<svg xmlns="http://www.w3.org/2000/svg" viewBox="0 0 100 100"><defs><style>.cls-1{fill:#fff;}.cls-2{fill:#f6f6f6;}.cls-3,.cls-5{fill:#9cc;}.cls-3{stroke:#91bfbe;stroke-miterlimit:10;stroke-width:0.5px;}.cls-4{fill:#91bfbe;}</style></defs><title>webdev-icon</title><g id="Layer_2" data-name="Layer 2"><g id="Layer_1-2" data-name="Layer 1"><rect class="cls-1" width="100" height="100"/><path class="cls-2" d="M88.89,15.52V66.63h-50S88.89,57.63,88.89,15.52Z"/><path class="cls-3" d="M88.21,11.59H11.79A4.29,4.29,0,0,0,7.5,15.88V71.31a4.29,4.29,0,0,0,4.29,4.28H88.21a4.29,4.29,0,0,0,4.29-4.28V15.88A4.29,4.29,0,0,0,88.21,11.59Zm.68,55H11.11V15.52H88.89Z"/><polygon class="cls-3" points="61.11 75.59 38.89 75.59 38.11 87.07 61.89 87.07 61.11 75.59"/><path class="cls-3" d="M34.31,87.07H65.83a.8.8,0,0,1,.8.8v.4a.14.14,0,0,1-.14.14h-33a.14.14,0,0,1-.14-.14V88a.94.94,0,0,1,.94-.94Z"/><polygon class="cls-4" points="38.89 75.59 48 87.07 61.89 87.07 61.11 75.59 38.89 75.59"/><path class="cls-4" d="M52.65,87.07H65.83a.8.8,0,0,1,.8.81v.53H53.56Z"/><path class="cls-5" d="M40.91,50.66,23,42.78V40.2l17.87-8.93v4.32L28.6,41.3l12.31,5.06Z"/><path class="cls-5" d="M57.55,27.81,47.73,54.13h-5l9.81-26.32Z"/><path class="cls-5" d="M59.31,46.36,71.62,41.3,59.31,35.59V31.27L77.19,40.2v2.58L59.31,50.66Z"/></g></g></svg>