<svg xmlns="http://www.w3.org/2000/svg" viewBox="0 0 450 456.14"><defs><style>.cls-1{fill:#96c8c5;}.cls-2{fill:#95c8c5;}</style></defs><title>sygnet</title><g id="Layer_2" data-name="Layer 2"><g id="Warstwa_1" data-name="Warstwa 1"><path class="cls-1" d="M157.93,445.56a75,75,0,0,0-9.6-3.07c-2.58-.7-4.33-.91-4.34-.43,1.72.64,3.84,1.62,6,2.45s4.39,1.76,6.16,2.58l-3.53-1.64C149.18,443.34,156.2,445.69,157.93,445.56Z"/><path class="cls-1" d="M164.06,7.89l5.78-1.63L175.43,5l5.21-1.28,4.74-1.12A43.4,43.4,0,0,0,192.94,0c-4.66.68-8.56,1.43-12.06,2.15-3.45.88-6.5,1.75-9.46,2.64s-5.77,2-8.86,3.11-6.36,2.45-10.2,3.94c1.92-.75,3.87-1.47,5.81-2.16S162.11,8.47,164.06,7.89Z"/><path class="cls-1" d="M425.85,121.75c.29,1.81,2.44,6.4,4.67,11.83,4.72,10.76,9.18,25.08,8,23.78-.17,1.2-.94-.36-2-3s-2.68-6.35-4.15-9.53c-.64-1.94-1.41-3.83-2.15-5.7l-2.14-5.56c-1.42-3.6-2.88-6.94-4-9.93-.93-2.3-1.72-4.33-2.29-6a52.48,52.48,0,0,1-7.54,1h0c3.43,5.65,6.62,11.45,9.5,17.38a255.58,255.58,0,0,1,16.77,44.47,104.08,104.08,0,0,1,6.44,24c.59,3.81.84,7.64,1.23,11.6s.37,8.08.64,12.51a170.88,170.88,0,0,0-.88-46.49,201.7,201.7,0,0,0-16.79-54.87C426.86,121,425.52,120,425.85,121.75Z"/><path class="cls-1" d="M254.28,131a27.54,27.54,0,0,0,1.32-15.5,11.78,11.78,0,0,0-1.51-3.84c-2.07-3.13-5.46-4.72-10.09-4.72-8.74,0-19.11,5.5-22.08,7.19a83.77,83.77,0,0,0-11.31,7.75C195,134.49,183.25,151.7,173.7,176a105,105,0,0,0-6.34,21.55l-.09.59c-.86,5.38-2.15,13.52,2.49,16.52a6.1,6.1,0,0,0,4.22.47c5.75-1,11.09-5.54,15.81-9.53l2.21-1.86a273.59,273.59,0,0,0,20.38-19.2c6.71-6.76,13-13.82,18.28-19.83,3.72-4.2,7.25-8.69,10.66-13l1.57-2C246.84,144.69,251.71,138,254.28,131Z"/><path class="cls-1" d="M301.77,408.67c5.29-14.78,12.65-28.46,18.47-38.72,4.87-8.59,10.22-17.53,15.89-26.55,13.63-21.68,28.67-42.85,43.21-63.32,13.59-19.13,27.59-38.85,40.46-59a117.88,117.88,0,0,1-13.64,6.86,9.43,9.43,0,0,1-6.1.66c-.27,0-.54-.13-.82-.21a5.13,5.13,0,0,0-.77-.17c-.23.34-.52.73-.81,1.11a13.6,13.6,0,0,1-1.9,2.19,43.45,43.45,0,0,1-19.41,8.27c-5,.61-11.21-1.28-12.9-6.86a16.15,16.15,0,0,1-.49-2.65,5.76,5.76,0,0,0-.82-2.89,3.56,3.56,0,0,0-2.22-.91c-5.53-.74-10.8,3.6-15,7.08-2.5,2.05-4.06,3.45-5.44,4.69a69.39,69.39,0,0,1-9.13,7.12c-7.36,5-11.71,3.83-14.07,2-.22-.17-.44-.37-.66-.57a4.07,4.07,0,0,0-.81-.62,10.63,10.63,0,0,0-.91.66c-4.06,3.42-7.31,6-12.2,7.52-2,.62-4.84,1.24-7.41-.5a8.85,8.85,0,0,1-3.57-7.55c0-.72.08-1.45.16-2.16l-.81,1c-1.63,2-3.28,4-5.07,5.84-2.91,2.95-5.84,5.92-9,8.56-1.52,1.25-2.65,2.28-3.65,3.2a44.56,44.56,0,0,1-6.64,5.24c-2.9,1.84-5.81-.68-8.38-2.9-1.45-1.24-3.55-3-4.57-2.88-1.78.3-3.77,3.69-5,5.71-.35.6-.63,1.07-.88,1.46a26.53,26.53,0,0,1-9.69,8.64l-.47.25c-2.35,1.26-5.58,3-8.1-1.42a10.35,10.35,0,0,1-.88-8.35l.84-2.47q-1.05.72-2.07,1.53c-1.46,1.13-3,2.12-4.5,3.09a38.06,38.06,0,0,0-6,4.39,39.61,39.61,0,0,0-4,4.73,40.27,40.27,0,0,1-4.83,5.62c-4.8,4.4-11.34,10.39-19,8.31a33.27,33.27,0,0,1-4.56-1.69c-1-.4-1.87-.79-2.82-1.12a40.93,40.93,0,0,0-6.94-1.57,4.91,4.91,0,0,0-2.55,0,5.28,5.28,0,0,0-1.2,1.09l-.2.21a34.66,34.66,0,0,1-9.06,6.58,7.84,7.84,0,0,1-7,.11,6.08,6.08,0,0,1-3.39-4.58,10.37,10.37,0,0,1,.23-3.8,58.66,58.66,0,0,1-6.69,5.65,18,18,0,0,1-8.23,3.36,5.79,5.79,0,0,1-4.72-1.2,5.11,5.11,0,0,1-1.55-4c.14-3.56,1.89-6.75,3.43-9.57a59.19,59.19,0,0,0,3.73-7.81l-30.5,36c-3.43,4-7.7,9.08-13.76,10.89-2.15.63-3.89.42-5.16-.62-2.1-1.72-2-4.66.18-8.05,12.18-18.73,19.33-37.16,21.23-54.77.25-2.25-.21-4.09-1.06-4.27a2,2,0,0,0-1.06.16,32.93,32.93,0,0,0-11.79,7.2c-14.73,13.79-25,31.58-35,48.78l-.65,1.12c-5.93,10.26-11,19.91-15.56,29.37.51.84,1,1.69,1.54,2.52l.11.32c1.88,5.14,5.19,11.95-.53,5.57,2.36,4.13,4.65,7.54,6.51,10.62l5.27,7.72c3.1,4.36,5.33,7.39,7.08,10.08s3.27,4.83,4.85,7.51,3.52,5.66,6.28,10A82.26,82.26,0,0,0,85,403a17,17,0,0,0,5.24,2.13c2.39.38,3.16-.56,6.34.66L124.72,424l6.72,4c2.28,1.24,4.57,2.44,6.89,3.62a69.66,69.66,0,0,0,7.1,3.2,74.51,74.51,0,0,0,7.43,2.68c-8.57-.09-.73,4.44,13,8.77,1.71.53,3.5,1.09,5.36,1.62l5.78,1.39c2,.44,4,1,6,1.33l6.13,1.07a215.92,215.92,0,0,0,22.61,2.51,78.51,78.51,0,0,0,10,.33,55,55,0,0,0,6.18-.4,20.87,20.87,0,0,0,6-1.89c2.95-1.43,6.11-2.31,23.1-4.11,8.65.28.22,2.39-7.76,4.24-8,1.57-15.46,3.11-3.84,3.75,5.37-.7,10.66-1.9,15.94-2.95,9.81-4,17.17-8.26,28.18-13.22,1.49-.42,3.12-.93,4.77-1.45C295.26,428.16,298.61,417.51,301.77,408.67Z"/><path class="cls-1" d="M449.16,242.9c0-.92,0-1.88,0-2.87s-.09-2-.13-3c-.19-3.92-.44-7.51-.95-8.45-1.71,2-3.41,5.44-5.15,10q.23-4.95.23-10a214.56,214.56,0,0,0-30.09-109.9c-17.82,1.56-34,5.75-48.1,12.45A158.25,158.25,0,0,0,340.53,146c-2.27,1.64-4.55,3.44-6.57,5-1.76,1.39-3.51,2.77-5.3,4.1l-1,.72c-3.5,2.63-7.87,5.91-12.41,6.93a3.79,3.79,0,0,1-2.27-.08,3.47,3.47,0,0,1-2.08-2.52,6.62,6.62,0,0,1-.05-2.11,72.92,72.92,0,0,1,1.93-11.63c.52-2,1.11-3.93,1.7-5.89l.2-.64c.15-.48.31-1,.41-1.41-.56.43-1.34,1.1-2.45,2.11a17.2,17.2,0,0,1-1.39,1.2A41.94,41.94,0,0,1,300.86,147a35.9,35.9,0,0,1-5.48,1.24c-3,.5-5.8,1-7.94,2.77a6.2,6.2,0,0,0-1.1,1.66l-.36.66c-1,1.77-2,3.57-2.93,5.38-.64,1.24-1.25,2.48-1.86,3.72l-1.32,2.66a44.77,44.77,0,0,1-3.31,5.28l-.95,1.38a43.43,43.43,0,0,1-3.23,4.33,15.85,15.85,0,0,1-3.73,3.26,7.45,7.45,0,0,1-3.74,1.1,2.39,2.39,0,0,1-1.47-.5,2.09,2.09,0,0,1-.54-1.57,50.09,50.09,0,0,1,.36-7.32,39.1,39.1,0,0,1,1.13-5c.15-.54.29-1.08.43-1.62.33-1.3.68-2.64.95-4l-1.11,1.28a40.16,40.16,0,0,1-3.74,4c-1.52,1.37-4.84,4.76-8.35,8.34-5.07,5.17-10.75,11-13.2,12.91a7.49,7.49,0,0,1-5.54,2,4.09,4.09,0,0,1-3.18-2,5.5,5.5,0,0,1-.26-4.91c.7-1.72,2.13-5.49,3.55-9.26.34-.9.68-1.81,1-2.68-7.17,8.05-14.85,16.42-23.06,24.42a252.23,252.23,0,0,1-25.06,22c-3.63,2.71-7.53,5.39-11.92,6a16.83,16.83,0,0,1-2.1.14,12.06,12.06,0,0,1-9.66-4.47c-3-3.63-4.07-8.46-3.35-14.77a128,128,0,0,1,9.35-34.56c3.82-9.16,8.72-19.91,16-30.26,6.78-9.57,15.17-18.11,26.41-26.88a62.36,62.36,0,0,1,11.94-7.09,55.71,55.71,0,0,1,13.35-4.65,29.35,29.35,0,0,1,14.64.84,15.21,15.21,0,0,1,7.68,5.28c3.07,4.14,3.95,8.86,4.79,13.42l.05.22a5,5,0,0,0,.69-.66l.35-.37.88-1c.7-.78,1.37-1.52,1.88-2a5.51,5.51,0,0,1,5.08-.9c1.3.57,3.53,1.84,3.85,3.92a3.39,3.39,0,0,1-1.26,3.12c-.68.6-1.34,1.1-2,1.58A19.75,19.75,0,0,0,271,125.6c-1.27,1.36-2.29,2.55-3.42,3.87-.76.89-1.52,1.77-2.4,2.77a19.12,19.12,0,0,1-1.14,1.54c-2.82,3.65-9.4,12.18-13,18.59a68.89,68.89,0,0,0-4.55,9.46c-.59,1.45-1.26,3.1-2.28,5.26-.58,1.21-1.89,4.92-3,8,2.74-2.78,6.42-6.67,10-10.46,5-5.31,10.13-10.69,12.78-13.2,1.33-1.26,2.68-2.6,4-3.88l.79-.78A5,5,0,0,1,274,145.4a2.16,2.16,0,0,1,1.42,1.57l.08.44c0,4.55-1.49,9.1-2.94,13.5l-.07.21c-.44,1.34-.87,2.66-1.24,3.92-.43,1.48-.78,2.74-1.07,3.83.26-.44.52-.88.77-1.34,1.4-2.51,2.57-5.23,3.71-7.86a81.42,81.42,0,0,1,4.43-9.18c1.82-3.11,4.35-6.93,7.83-8.9,2.4-1.35,5.19-1.63,7.88-1.9a29.6,29.6,0,0,0,3.74-.52,29,29,0,0,0,11.75-6.12,60,60,0,0,0,11-11.23,30.69,30.69,0,0,0,2.69-5v0c-.91-.14-1.8-.26-2.67-.38A38.12,38.12,0,0,1,311.06,114c-4.43-1.84-6.81-5-6.7-9a2.27,2.27,0,0,1,1-1.83,2.34,2.34,0,0,1,1.56-.43,8.44,8.44,0,0,1,3.88,1.41c3.68,2.37,6.82,4.25,10.92,5.12,1.44.3,4.13.61,6-.76a4.33,4.33,0,0,0,1.17-2c.18-.49.36-1,.58-1.45,2.18-4.54,4.7-9.41,7.93-15.31,2.51-4.55,5.46-9.51,8.79-14.73a48.13,48.13,0,0,1,5.63-7.32A19.34,19.34,0,0,1,359.05,63a7.51,7.51,0,0,1,2.93-.46h.3a3.19,3.19,0,0,1,2,.75c.55.53,1.68,2,.32,4.53a137.56,137.56,0,0,1-8.33,13.58l-.71,1a147.75,147.75,0,0,0-8.47,13.07c-1.45,2.64-2.91,5.41-4.31,8.1.91-.32,1.81-.69,2.73-1.08.6-.25,1.14-.48,1.7-.7A66.32,66.32,0,0,0,354,98.62a41.11,41.11,0,0,0,5.77-3.86,19.91,19.91,0,0,0,2.49-2.28l.19-.2A10,10,0,0,1,365.24,90a2.22,2.22,0,0,1,2.15,0,2.14,2.14,0,0,1,1.09,1.69c.49,4.59-2.94,7.14-5.46,9l-.22.17a79.15,79.15,0,0,1-9,5.82c-1.86,1-3.89,2-5.85,3-1.52.75-3,1.48-4.41,2.22-.74.4-1.48.77-2.22,1.14a29.47,29.47,0,0,0-6.57,4c-3.19,2.83-5.3,6.43-7.54,10.49-.29.53-.57,1-.84,1.57-1.07,2-2,4-2.8,6A53.05,53.05,0,0,0,320,148.57c-.12.89-.21,1.79-.3,2.68l2.13-1.45c3.76-2.6,7.76-5.45,12.2-8.73,18-13.33,40.38-22.9,64.58-27.69,3.06-.61,6.54-1.21,10.23-1.6a216.91,216.91,0,0,0-50.48-54.64c2,1.47,4.07,3,6.07,4.53a205.44,205.44,0,0,1,33.67,33.67c4.17,5.25,8.1,10.71,11.8,16.33a65.45,65.45,0,0,1,10-.22c-2.06-2.11-4.17-4.16-6.22-6.21a256.92,256.92,0,0,0-34-41.56,213,213,0,0,0-22-18.87c-3.92-3.07-8.15-5.8-12.4-8.66-2.15-1.39-4.39-2.67-6.61-4l-3.37-2-3.48-1.85a64.42,64.42,0,0,1,7.75,2.85,63.57,63.57,0,0,1,6.8,3.32c2.25,1.34,4.63,2.89,7.38,4.8s5.71,4.43,9.36,7.38c7.19,3.16,9.26,3.77,8.08,2.53A74.81,74.81,0,0,0,360,41.39l-4.48-2.76-4.86-2.75L345.73,33l-4.93-2.68c-1.6-.88-3.14-1.79-4.61-2.65s-2.91-1.62-4.2-2.41a39.14,39.14,0,0,1-6.08-4.44c.74,1.18-3.53-.37-9.23-2.75l-9.38-3.56c-3.22-1.2-6.42-2.19-9-3.09,2.91,1.55,5.85,3,8.68,4.61,4.56,1.32,9.21,2.51,13.71,4.14,6.73,3.39,9.63,5.63,10.46,6.59s-.56.89-2.77.35c-1.11-.26-2.42-.67-3.8-1L320.38,25a28.21,28.21,0,0,0-5.3-1.17l-12.25-4.9c-3.68-1.37-6.91-2.77-9.92-4s-5.81-2.29-8.47-3.43-5.3-2-7.94-3.08-5.38-2-8.34-2.84a85.89,85.89,0,0,0-9.71-2.51,102.78,102.78,0,0,0-12-1.89c-2.25-.22-4.64-.44-7.18-.62S234,.45,231.11.43c-1.33,1.53,6,1.68,2.72,2.95a67.41,67.41,0,0,0-7.19.52l-5.1.82c-1.74.26-3.72.41-6.51.66s-6.39.49-11.4.84a74.29,74.29,0,0,0-14.84,1.51c-2.37.49-4.72,1-7,1.61l-6.94,2.11c-2.34.68-4.65,1.51-7,2.36l-7.26,2.5c-2.46.92-5,1.81-7.65,2.66s-5.36,1.86-8.25,2.7c-5.31.38.58-2.68,7.42-5.58l9.56-3.81c2.52-1,3.87-1.72,2.66-1.95-3.81.57-7.56,1.41-11.33,2.25L143.16,16l-5.22,1.75-5.16,2c-1.71.67-3.4,1.33-5,2s-3.15,1.53-4.61,2.31a34.87,34.87,0,0,0-7.48,5l-1-.95C107,33,97.12,39.86,88.49,46.73l-6.15,5.14c-1.91,1.72-3.68,3.43-5.31,5a53.28,53.28,0,0,0-7.17,8.26C48.3,84.36,30.56,109.91,19,138.23S2,197.48,1.93,227.52C1.19,231.4.64,235.32,0,239.27c.11,4.41.42,8.14.65,11.31s.76,5.76,1.12,7.94a39.14,39.14,0,0,0,2.44,9c1.66,4.06,3.05,5.73,5.49,13.35.44,3.77-1,2.63-1.13,4.76,5.83,17-.16-6.14,2.65.36,1.28,4.33,2.56,9,4.31,13.57.85,2.3,1.61,4.64,2.53,6.9s1.84,4.5,2.73,6.7,1.83,4.31,2.71,6.37,1.73,4,2.48,5.93a81.15,81.15,0,0,1,3.89,9.93c2.26,1,4.53,1.9,6.77,2.8a75.4,75.4,0,0,1-4.51-18.36c2.22,4.76,4.64,9.41,7.19,14,13.43-27.5,27.27-49.87,42.21-68.23A61.92,61.92,0,0,1,102,249.2c2.28-1.13,8.35-4.11,12.3,1a9.8,9.8,0,0,1,1.89,7c-1.79,18.56-9.22,35.74-16.83,50.46,1.88-1.76,3.58-3.61,5.16-5.32,5.92-6.45,11.67-13.26,17.22-19.84l1.6-1.9c3.19-3.78,6.32-7.47,9.53-11.13,1.56-1.79,3.15-3.57,4.75-5.33l.63-.74c1.15-1.37,2.72-3.24,5.33-3.37a3.81,3.81,0,0,1,3.54,1.88c1.24,2.23.4,5-.21,7.08l-.26.86a61.87,61.87,0,0,1-2.42,7c-.91,2.26-1.94,4.54-2.84,6.56-.55,1.24-1.12,2.5-1.67,3.77l3.92-3.44c3.48-3.06,7-6.13,10.5-9.13a4.05,4.05,0,0,1,4-.74,5.07,5.07,0,0,1,3.32,3.52,9.25,9.25,0,0,1-.39,4.58l-1.27,4.58a14,14,0,0,0-.44,1.94c.34-.25.65-.52.8-.65l7.28-6.41c1.46-1.32,4.89-4.43,8.16-1.63A7.67,7.67,0,0,0,181.7,282c1.69-.24,2.69-1.65,4-3.44,5.26-7.44,12.48-12.92,19.82-15a13.3,13.3,0,0,1,8.51.15,9.81,9.81,0,0,1,2,1.2c.69.51,1.21.88,1.51.81.91-.17,2.37-1.5,3.33-2.38.49-.44,1-.85,1.36-1.17,2.27-1.81,4.52-3.67,6.76-5.52.58-.48,1.17-1,1.76-1.56a25.94,25.94,0,0,1,4.58-3.59,4.45,4.45,0,0,1,3.57-.41,4.38,4.38,0,0,1,2.77,3.8,7.24,7.24,0,0,1-.77,3.6l-.84,1.83c-1.38,3-2.77,6.09-4.2,9.12a4.32,4.32,0,0,0-.06.91,53.92,53.92,0,0,0,5.36-6.29c.37-.55.74-1.13,1.11-1.72,2-3.16,4.39-7,8.8-7.9a13.78,13.78,0,0,1,13.14,4.5l.1.12.09-.08,3.45-2.71c3.32-2.61,6.65-5.21,9.64-8a116.34,116.34,0,0,0,17.47-20.6,151.65,151.65,0,0,0,9.3-17.19l.27-.57,1.8-3.66c4.61-9.31,9.91-18.38,15-27.15,1.45-2.47,2.89-4.93,4.32-7.41s3.6-3.24,5.85-1.95a4.74,4.74,0,0,1,1.54,6.45c-6.3,11-12.47,22.17-18.44,33l-.71,1.29c-1.09,2-2.21,3.93-3.33,5.88l-.22.39c-2.05,3.58-4.15,7.25-6,10.93l-1,2c-2.56,4.88-5.46,10.42-5.31,15.66a2.54,2.54,0,0,0,.37,1.57,2.19,2.19,0,0,0,2,.32c2.73-.63,5.08-3.43,7.16-5.9l.13-.15,1-1.14a119.85,119.85,0,0,0,8.34-10.8,5.44,5.44,0,0,1,2.08-2,3.71,3.71,0,0,1,4,.47,5.45,5.45,0,0,1,1.95,5.2,11.28,11.28,0,0,1-1.75,3.8,14.44,14.44,0,0,0-1,1.8,2.63,2.63,0,0,0,0,2c.08.14.12.15.14.15.35.07,1.13-.45,1.44-.64a81.11,81.11,0,0,0,10.08-7.23c1.34-1.08,2.86-2.32,5-4l.81-.63c4.4-3.44,8.94-7,14.51-8.59l1.43-.38c1.9-.47,3.57-.89,4.61-1.91a9.72,9.72,0,0,0,1.73-3.17c.14-.36.29-.72.44-1.06a40,40,0,0,1,2.56-5.22c2.35-3.83,5.72-6.14,9.48-6.48s8.07,1.18,9.09,5.38c1.31,5.43,0,12.7-5.14,16.1a24.89,24.89,0,0,1-3.05,1.62c-2.34,1.11-4.72,2.23-5,4.14a3.36,3.36,0,0,0,2.32,3.48c5.39,2,14.18-1.33,18.14-5.56,2.62-2.8,4.19-6.53,5.7-10.14.39-.91.73-1.88,1.09-2.87,1.44-4,3.08-8.61,7.54-10.71a2.25,2.25,0,0,1,2.56.33c1.23,1.16.51,2.94.16,3.8s-.65,1.53-1,2.28c-.24.52-.48,1-.7,1.57-.59,1.41-1.12,2.84-1.65,4.28s-1,2.61-1.46,3.85c-.18.44-.65,1.6-.48,1.93a1.18,1.18,0,0,0,.28.09,3.43,3.43,0,0,0,1.28-.13c6.68-1.59,13.54-6.17,19.59-10.21l1.47-1c1.14-.76,2.26-1.53,3.37-2.32a4,4,0,0,1,4.46-.07,2.2,2.2,0,0,1,.81,2.48,111.42,111.42,0,0,1-8.48,18.48c-14.3,22.89-29.88,46.15-46.34,69.2-5.52,7.73-12,16.91-18.45,26.36C343.6,348.44,332,368.29,322.88,388a201.27,201.27,0,0,0-12.18,32.26c-1.26,4.7-2.63,9.68-4.34,14.62.32,0,.53,0,.59.05l-.74.36c-.49,1.4-1,2.78-1.58,4.16,2.25-.44,5.16-1.22,8.66-2.26,6.09-3.54,7.51-4.6,10.17-6.75-7.3,1.58-9.14,1.51-7.66.42s6.4-3.09,12.49-6.21c1.53-.76,3.17-1.52,4.83-2.39l5.05-2.79c3.49-1.85,6.91-4.07,10.23-6.23,6.61-4.39,12.43-9.14,15.77-13,2.72-2.47,5-4.9,7.19-7l3.09-3,2.72-2.81c1.73-1.76,3.33-3.3,4.78-4.68s2.68-2.69,3.88-3.8,2.3-2.07,3.34-2.92,1.94-1.66,2.85-2.36c1.79-1.4,3.44-2.5,5.09-3.6a61.45,61.45,0,0,0,5-3.69,46.85,46.85,0,0,0,6-5.62c1.09-1.22,2.26-2.61,3.53-4.19l2-2.52,2-2.94c1.35-2.09,2.89-4.37,4.4-7s3.06-5.63,4.71-8.92c-3.42,3.28-4.09,2.66-3.05-.26.53-1.46,1.33-3.59,2.47-6.1L426,324.7c.66-1.46,1.29-3.05,2-4.67s1.44-3.32,2.18-5,1.38-3.56,2.09-5.38,1.38-3.66,2.07-5.49,1.2-3.71,1.78-5.53,1.18-3.59,1.64-5.34.85-3.45,1.25-5.05.71-3.14,1-4.54.43-2.75.57-3.92c3.71-15.56,5.8-21.11,8.6-32.25C449.16,246.36,449.15,244.73,449.16,242.9ZM32.24,137.11q-2.93,4.48-5.64,9.13c3.22-11.52,10-23.82,18.44-35.17,4.15-5.63,8.69-11,13.3-16.16A215.64,215.64,0,0,0,32.24,137.11ZM81.17,70.27a4.48,4.48,0,0,0,.36-.61c2.54-2.38,5.43-4.85,8.34-7.48,3-2.47,6.14-5,9.3-7.38s6.33-4.53,9.42-6.28l2.19-1.23A216.49,216.49,0,0,0,81.17,70.27ZM126,38.34c4.66-2.73,10.08-5.59,14.82-7.76,2.07-1.08,4-2,5.66-2.74a34.86,34.86,0,0,0,3.81-2.09c1.72-1.16,1.63-1.83-1.49-1.66a207.27,207.27,0,0,1,32.64-9.43,239.08,239.08,0,0,1,36.46-4.41,259.59,259.59,0,0,1,73.54,7.93c1.73,1.59,6.3,3.51,11.12,5.23l6.9,2.88c1.06.46,2.05.91,2.93,1.33A22.85,22.85,0,0,1,314.55,29c-2.83-.29.6,1.87,4.28,4.25A215.94,215.94,0,0,0,126,38.34Z"/><path class="cls-1" d="M204.45,276.92a19,19,0,0,0,4.12-5.92l.2-.45c.06-.13.12-.25.16-.35a8.29,8.29,0,0,0-2,.89l-.17.1-.71.38c-1.54.78-3.14,1.6-4.64,2.54a43.64,43.64,0,0,0-8,6.5,9.64,9.64,0,0,0-1.68,2.12,1.22,1.22,0,0,0-.19.49,5.73,5.73,0,0,0,.6,2.26,37,37,0,0,0,5.81-3.11A49.91,49.91,0,0,0,204.45,276.92Z"/><path class="cls-2" d="M375.76,208.09a2.63,2.63,0,0,0-2,.11,9.85,9.85,0,0,0-3.54,3.22A10.86,10.86,0,0,0,368.3,215c-.16.63-1.41,3.75-1,4.23.63.73,3.87-1.16,4.8-1.39a7.87,7.87,0,0,0,3.83-3.13,7,7,0,0,0,1.32-4.56A2.42,2.42,0,0,0,375.76,208.09Z"/></g></g></svg>