<svg xmlns="http://www.w3.org/2000/svg" viewBox="0 0 47.9 48.56"><defs><style>.cls-1{fill:#95c7c4;}.cls-2{fill:#94c7c4;}</style></defs><title>sygnet-brand</title><g id="Layer_2" data-name="Layer 2"><g id="Layer_1-2" data-name="Layer 1"><path class="cls-1" d="M16.81,47.43a7.88,7.88,0,0,0-1-.33c-.28-.07-.46-.09-.46,0l.64.26.66.27-.38-.17C15.88,47.19,16.63,47.44,16.81,47.43Z"/><path class="cls-1" d="M17.46.84l.62-.17.59-.14.56-.14.5-.12A4.78,4.78,0,0,0,20.54,0c-.5.07-.91.15-1.28.23s-.7.19-1,.28-.62.22-.95.33-.67.26-1.08.42L16.84,1C17,1,17.26.9,17.46.84Z"/><path class="cls-1" d="M45.33,13a11.23,11.23,0,0,0,.5,1.26,10.6,10.6,0,0,1,.85,2.53c0,.13-.1,0-.21-.32s-.29-.68-.44-1-.15-.41-.23-.61l-.23-.59c-.15-.39-.31-.74-.42-1.06s-.19-.46-.25-.64a7,7,0,0,1-.8.11h0c.36.6.7,1.21,1,1.85a26.81,26.81,0,0,1,1.78,4.73,11.16,11.16,0,0,1,.69,2.56c.06.41.09.81.13,1.23s0,.86.07,1.33a18.11,18.11,0,0,0-.1-4.94,21.32,21.32,0,0,0-1.78-5.84C45.44,12.88,45.3,12.77,45.33,13Z"/><path class="cls-1" d="M27.07,13.94a3,3,0,0,0,.14-1.65A1.11,1.11,0,0,0,26,11.38a5.59,5.59,0,0,0-2.35.76,9.52,9.52,0,0,0-1.2.83,13.32,13.32,0,0,0-3.93,5.77A11.14,11.14,0,0,0,17.82,21v.06c-.1.58-.23,1.44.26,1.76a.65.65,0,0,0,.45,0,4,4,0,0,0,1.68-1l.24-.2a29.07,29.07,0,0,0,2.17-2.05c.71-.72,1.38-1.47,1.94-2.11.4-.44.78-.92,1.14-1.38l.17-.21A8,8,0,0,0,27.07,13.94Z"/><path class="cls-1" d="M32.12,43.5a27.49,27.49,0,0,1,2-4.12c.52-.91,1.09-1.86,1.69-2.83,1.45-2.3,3-4.56,4.6-6.74,1.45-2,2.94-4.13,4.31-6.28a11.53,11.53,0,0,1-1.45.73,1,1,0,0,1-.65.07l-.09,0-.08,0-.09.12a1.43,1.43,0,0,1-.2.23,3.88,3.88,0,0,1-1,.56,4,4,0,0,1-1.12.33,1.23,1.23,0,0,1-1.37-.73,1.6,1.6,0,0,1,0-.29.59.59,0,0,0-.09-.3.36.36,0,0,0-.24-.1,2.32,2.32,0,0,0-1.6.75l-.58.5a6.69,6.69,0,0,1-1,.76c-.78.53-1.25.41-1.5.21l-.07-.06-.08-.07s0,0-.1.07a3.48,3.48,0,0,1-1.3.8.86.86,0,0,1-.79-.05.94.94,0,0,1-.38-.8c0-.08,0-.16,0-.23l-.09.11c-.17.21-.35.42-.54.62s-.62.63-.95.91A3.78,3.78,0,0,0,29,28a4.63,4.63,0,0,1-.71.56c-.31.19-.62-.07-.89-.31s-.38-.32-.49-.31-.4.4-.53.61l-.09.16a2.89,2.89,0,0,1-1,.92l-.05,0c-.25.14-.59.32-.86-.15a1.11,1.11,0,0,1-.1-.89l.09-.26-.22.16a5.11,5.11,0,0,1-.48.33,4.3,4.3,0,0,0-.63.47,4.18,4.18,0,0,0-.43.5,3.6,3.6,0,0,1-.51.6c-.51.47-1.21,1.11-2,.89-.17-.05-.33-.12-.49-.18a1.88,1.88,0,0,0-.3-.12,3.62,3.62,0,0,0-.74-.17.61.61,0,0,0-.27,0,.45.45,0,0,0-.12.12l0,0a3.52,3.52,0,0,1-1,.7.83.83,0,0,1-.75,0,.68.68,0,0,1-.36-.48,1.11,1.11,0,0,1,0-.41,6.64,6.64,0,0,1-.71.6,1.83,1.83,0,0,1-.88.36.62.62,0,0,1-.5-.13.56.56,0,0,1-.17-.42,2.36,2.36,0,0,1,.37-1,7.07,7.07,0,0,0,.4-.83l-3.25,3.82A3.3,3.3,0,0,1,9.84,34.3a.57.57,0,0,1-.55-.06c-.22-.19-.21-.5,0-.86a13.4,13.4,0,0,0,2.26-5.83c0-.24,0-.44-.11-.46a.26.26,0,0,0-.11,0,3.6,3.6,0,0,0-1.26.77,21.89,21.89,0,0,0-3.72,5.19l-.07.12c-.63,1.09-1.17,2.12-1.66,3.13.06.09.11.18.17.26v0c.2.55.55,1.27-.06.59.25.44.5.8.7,1.13l.56.82c.33.47.56.79.75,1.08a8.42,8.42,0,0,1,.52.8c.16.28.37.6.67,1.06A8.34,8.34,0,0,0,9,42.9a1.75,1.75,0,0,0,.56.23c.25,0,.34-.06.68.07l3,1.93.71.43c.24.14.49.26.73.39a7.35,7.35,0,0,0,.76.34c.26.1.52.21.79.29-.91,0-.08.47,1.38.93l.57.17.62.15.64.14.65.11a22.17,22.17,0,0,0,2.41.27,8.38,8.38,0,0,0,1.06,0,5.1,5.1,0,0,0,.66,0,2,2,0,0,0,.64-.2,7.76,7.76,0,0,1,2.46-.43c.92,0,0,.25-.83.45s-1.64.33-.4.4c.57-.08,1.13-.21,1.69-.32,1.05-.42,1.83-.88,3-1.41l.51-.15A13.71,13.71,0,0,1,32.12,43.5Z"/><path class="cls-1" d="M47.81,25.86v-.62a4.13,4.13,0,0,0-.1-.91,4.14,4.14,0,0,0-.55,1.07c0-.36,0-.71,0-1.07A22.75,22.75,0,0,0,44,12.64,14.89,14.89,0,0,0,38.85,14a16.3,16.3,0,0,0-2.6,1.58c-.24.17-.49.36-.7.53l-.56.44-.11.08a3.79,3.79,0,0,1-1.32.73.34.34,0,0,1-.24,0,.36.36,0,0,1-.22-.26.94.94,0,0,1,0-.23,7.82,7.82,0,0,1,.21-1.24c.05-.21.12-.41.18-.62l0-.07a.83.83,0,0,0,0-.15l-.26.22a1.21,1.21,0,0,1-.14.13,4.42,4.42,0,0,1-1.11.55,4.56,4.56,0,0,1-.59.14,1.66,1.66,0,0,0-.84.29.7.7,0,0,0-.12.18l0,.07c-.11.19-.21.38-.31.57s-.13.26-.2.4-.09.19-.14.28a5.28,5.28,0,0,1-.35.56l-.1.15c-.11.15-.22.31-.35.46a1.69,1.69,0,0,1-.39.35.86.86,0,0,1-.4.11.25.25,0,0,1-.16-.05A.25.25,0,0,1,28,19a4.75,4.75,0,0,1,0-.78c0-.18.08-.36.12-.53a1.54,1.54,0,0,0,.05-.17c0-.14.07-.28.1-.42l-.12.13a4,4,0,0,1-.39.43c-.17.14-.52.5-.89.88-.54.55-1.15,1.17-1.41,1.38a.8.8,0,0,1-.59.21.45.45,0,0,1-.34-.21.58.58,0,0,1,0-.53l.37-1c0-.1.08-.19.11-.29-.76.86-1.58,1.75-2.45,2.6a28.16,28.16,0,0,1-2.67,2.35,2.92,2.92,0,0,1-1.27.63H18.4a1.28,1.28,0,0,1-1-.47A2,2,0,0,1,17,21.65,13.5,13.5,0,0,1,18,18a16.29,16.29,0,0,1,1.7-3.22,13.56,13.56,0,0,1,2.82-2.86,6.54,6.54,0,0,1,1.27-.76,5.86,5.86,0,0,1,1.42-.49,3.06,3.06,0,0,1,1.56.08,1.6,1.6,0,0,1,.81.57,3.21,3.21,0,0,1,.51,1.43v0l.07-.07,0,0,.09-.1.2-.21a.58.58,0,0,1,.54-.1c.14.06.38.2.41.42a.35.35,0,0,1-.13.33l-.21.17a2.76,2.76,0,0,0-.27.23l-.36.41-.26.3a1.24,1.24,0,0,1-.12.16,20.83,20.83,0,0,0-1.39,2,7.45,7.45,0,0,0-.48,1c-.06.15-.14.33-.24.56a8.68,8.68,0,0,0-.32.84c.29-.29.68-.71,1.07-1.11.53-.56,1.07-1.14,1.36-1.4l.42-.42.08-.08a.54.54,0,0,1,.56-.14.22.22,0,0,1,.15.16v0A4.82,4.82,0,0,1,29,17.13v0c-.05.14-.09.28-.13.42s-.08.29-.12.41l.09-.15a7.87,7.87,0,0,0,.39-.83,8.81,8.81,0,0,1,.47-1,2.63,2.63,0,0,1,.84-.95,2.16,2.16,0,0,1,.84-.2l.39,0A3.1,3.1,0,0,0,33,14.16,6.18,6.18,0,0,0,34.2,13a3.92,3.92,0,0,0,.29-.53h0l-.29,0a4.16,4.16,0,0,1-1.09-.25,1,1,0,0,1-.71-1,.25.25,0,0,1,.1-.2.25.25,0,0,1,.17,0,.9.9,0,0,1,.41.15,3.4,3.4,0,0,0,1.16.54.83.83,0,0,0,.64-.08.39.39,0,0,0,.12-.22,1,1,0,0,1,.07-.15c.23-.49.5-1,.84-1.63s.58-1,.94-1.57a4.57,4.57,0,0,1,.6-.78,2.09,2.09,0,0,1,.77-.5.74.74,0,0,1,.31,0h0a.35.35,0,0,1,.22.08.36.36,0,0,1,0,.48,12.76,12.76,0,0,1-.89,1.44l-.07.11a14.94,14.94,0,0,0-.9,1.39c-.16.28-.31.58-.46.87l.29-.12.18-.07a7,7,0,0,0,.73-.34,4.66,4.66,0,0,0,.61-.41,2.16,2.16,0,0,0,.27-.25l0,0a1,1,0,0,1,.29-.24.24.24,0,0,1,.23,0,.23.23,0,0,1,.12.18,1.07,1.07,0,0,1-.59,1l0,0a8.82,8.82,0,0,1-1,.62c-.2.11-.42.21-.62.31l-.47.24-.24.12a3.05,3.05,0,0,0-.7.43,4.05,4.05,0,0,0-.8,1.12l-.09.17c-.11.21-.21.43-.3.63a6,6,0,0,0-.38,1.43l0,.29.22-.15c.4-.28.83-.58,1.3-.93a17.23,17.23,0,0,1,6.88-2.95,9.65,9.65,0,0,1,1.09-.17,23.12,23.12,0,0,0-5.38-5.82c.22.16.44.32.65.49a21.65,21.65,0,0,1,3.58,3.58c.45.56.86,1.14,1.26,1.74a6.29,6.29,0,0,1,1.07,0L44,11.2a27.12,27.12,0,0,0-3.61-4.42,23,23,0,0,0-2.34-2c-.42-.33-.87-.62-1.32-.92l-.7-.43-.36-.21L35.33,3c.31.1.58.2.82.3a7.05,7.05,0,0,1,.73.36c.24.14.49.31.78.51s.61.47,1,.79c.76.33,1,.4.86.26a8.31,8.31,0,0,0-1.2-.82l-.47-.3-.52-.29-.53-.3-.52-.29L35.79,3l-.45-.26a3.55,3.55,0,0,1-.65-.47c.08.13-.37,0-1-.29l-1-.38c-.34-.13-.68-.23-1-.33.31.16.62.32.92.49.49.14,1,.27,1.46.44a4.41,4.41,0,0,1,1.12.7c.08.11-.06.1-.3,0l-.4-.11-.45-.12a2,2,0,0,0-.56-.12L32.24,2c-.4-.14-.74-.29-1.06-.42s-.62-.24-.9-.37L29.43.9a7.57,7.57,0,0,0-.88-.3,8.72,8.72,0,0,0-1-.27,10.16,10.16,0,0,0-1.28-.2L25.46.06H24.6c-.14.16.64.17.29.31a6.15,6.15,0,0,0-.76.06L23.58.5c-.18,0-.39.05-.69.07s-.68.06-1.21.09A8.06,8.06,0,0,0,20.1.82L19.35,1l-.74.23c-.25.07-.5.16-.75.25l-.77.27L16.27,2c-.28.08-.57.2-.87.29-.57,0,.06-.29.79-.6l1-.4c.27-.11.42-.19.29-.21-.41.06-.81.15-1.21.24l-1,.36-.56.18-.55.22-.53.21-.49.25a4.27,4.27,0,0,0-.8.53L12.2,3c-.81.52-1.86,1.25-2.78,2l-.66.55-.56.53a5.58,5.58,0,0,0-.76.88A21.27,21.27,0,0,0,2,14.71,25.4,25.4,0,0,0,.2,24.22c-.07.41-.13.83-.2,1.25s0,.87.07,1.2.08.62.12.85a3.79,3.79,0,0,0,.26,1A12.54,12.54,0,0,1,1,29.9c.05.4-.1.28-.12.51.62,1.81,0-.65.28,0,.14.46.28,1,.46,1.44.09.25.17.5.27.74l.29.71c.09.24.2.46.29.68s.19.43.27.63a7.79,7.79,0,0,1,.41,1.06L3.9,36a7.69,7.69,0,0,1-.48-2c.24.51.49,1,.77,1.49a37.16,37.16,0,0,1,4.49-7.27,6.56,6.56,0,0,1,2.18-1.74c.24-.12.89-.44,1.31.1a1,1,0,0,1,.2.75,15.07,15.07,0,0,1-1.79,5.37c.2-.19.38-.39.55-.57.63-.69,1.24-1.41,1.83-2.11l.17-.2c.34-.41.68-.8,1-1.19l.5-.57.07-.07a.78.78,0,0,1,.57-.36.4.4,0,0,1,.37.2.93.93,0,0,1,0,.75l0,.09a6.57,6.57,0,0,1-.25.75c-.1.24-.21.49-.31.7s-.11.27-.17.4l.41-.36,1.12-1a.44.44,0,0,1,.43-.08.55.55,0,0,1,.35.38,1.1,1.1,0,0,1,0,.49L17,30.5c0,.08,0,.15,0,.21s.07-.05.08-.07l.78-.68c.15-.14.52-.47.87-.17a.81.81,0,0,0,.64.23c.18,0,.29-.18.42-.37a4.14,4.14,0,0,1,2.11-1.6,1.47,1.47,0,0,1,.91,0,.74.74,0,0,1,.21.13c.07.05.13.09.16.08a1.24,1.24,0,0,0,.36-.25l.14-.13.72-.58.19-.17a2.57,2.57,0,0,1,.49-.38.43.43,0,0,1,.38,0,.44.44,0,0,1,.29.4.86.86,0,0,1-.08.38l-.09.2-.45,1v.1a8.47,8.47,0,0,0,.57-.67l.11-.19a1.63,1.63,0,0,1,.94-.84,1.5,1.5,0,0,1,1.4.48h0c.12-.1.24-.2.37-.29.35-.28.71-.56,1-.85a12.06,12.06,0,0,0,1.86-2.2,15.34,15.34,0,0,0,1-1.83l0-.06c.07-.13.13-.26.19-.39.49-1,1.06-1.95,1.6-2.89.16-.26.31-.52.46-.79a.43.43,0,0,1,.63-.2.5.5,0,0,1,.16.68c-.67,1.18-1.33,2.36-2,3.51l-.08.14c-.11.21-.23.42-.35.62l0,.05c-.21.38-.44.77-.64,1.16l-.11.21a3.65,3.65,0,0,0-.56,1.67.32.32,0,0,0,0,.16.23.23,0,0,0,.22,0,1.73,1.73,0,0,0,.76-.63l0,0,.1-.12c.31-.36.61-.75.89-1.15a.56.56,0,0,1,.22-.21.38.38,0,0,1,.42.05.59.59,0,0,1,.21.55,1.29,1.29,0,0,1-.19.41l-.11.19a.26.26,0,0,0,0,.21s0,0,0,0a.51.51,0,0,0,.15-.07,9,9,0,0,0,1.07-.77l.53-.42.09-.07a4.64,4.64,0,0,1,1.54-.92l.16,0a1.05,1.05,0,0,0,.49-.2,1,1,0,0,0,.18-.34l0-.11a4.11,4.11,0,0,1,.27-.56,1.37,1.37,0,0,1,1-.69.86.86,0,0,1,1,.58,1.64,1.64,0,0,1-.55,1.71l-.32.17c-.25.12-.51.24-.54.44a.35.35,0,0,0,.25.37,2.11,2.11,0,0,0,1.93-.59A3.69,3.69,0,0,0,42.2,23c0-.09.07-.2.11-.3a1.76,1.76,0,0,1,.8-1.14.25.25,0,0,1,.28,0c.13.13,0,.32,0,.41l-.1.24-.08.17c-.06.15-.12.3-.17.45a3.89,3.89,0,0,1-.16.41c0,.05-.07.17,0,.21h0a.34.34,0,0,0,.14,0,7,7,0,0,0,2.08-1.08l.16-.11.36-.24a.42.42,0,0,1,.47,0,.23.23,0,0,1,.09.26,12.28,12.28,0,0,1-.9,2c-1.53,2.44-3.18,4.91-4.94,7.36-.58.83-1.28,1.81-2,2.81a47.88,47.88,0,0,0-4,6.85,22,22,0,0,0-1.3,3.44c-.13.5-.28,1-.46,1.55h.06l-.07,0-.17.44c.24-.05.55-.13.92-.24a6.64,6.64,0,0,0,1.08-.72c-.78.17-1,.16-.81,0s.68-.32,1.33-.66l.51-.25.54-.3c.37-.19.73-.43,1.09-.66a8.84,8.84,0,0,0,1.68-1.39c.29-.26.53-.52.76-.74l.33-.32.29-.3c.18-.19.35-.35.51-.5l.41-.41.36-.31.3-.25c.19-.15.37-.26.54-.38a6,6,0,0,0,1.18-1c.11-.13.24-.28.37-.45l.21-.27.21-.31c.15-.22.31-.46.47-.75s.33-.59.5-.95c-.36.35-.43.29-.32,0a6.64,6.64,0,0,1,.26-.65l.2-.44c.07-.15.14-.32.21-.49l.23-.54L46,33l.22-.59.19-.59c.06-.19.12-.38.17-.56l.13-.54.11-.49a3.7,3.7,0,0,0,.06-.41c.4-1.66.62-2.25.92-3.44C47.81,26.22,47.81,26.05,47.81,25.86ZM3.43,14.6c-.21.31-.41.64-.6,1a12.09,12.09,0,0,1,2-3.75c.45-.6.93-1.17,1.42-1.72A23.3,23.3,0,0,0,3.43,14.6ZM8.64,7.48l0-.06c.27-.26.58-.52.89-.8s.65-.54,1-.79.67-.48,1-.67A1.71,1.71,0,0,0,11.79,5,24.15,24.15,0,0,0,8.64,7.48Zm4.77-3.4c.5-.29,1.07-.59,1.58-.83l.6-.29A4.61,4.61,0,0,0,16,2.74c.18-.12.17-.19-.16-.18a22.43,22.43,0,0,1,3.47-1,25.72,25.72,0,0,1,3.88-.47A27.37,27.37,0,0,1,31,1.94a4.71,4.71,0,0,0,1.18.55l.74.31.31.14.23.14c-.3,0,.07.2.46.45a23,23,0,0,0-20.53.55Z"/><path class="cls-1" d="M21.76,29.48a2.05,2.05,0,0,0,.44-.63l0-.05,0,0-.21.1h0l-.07,0a4.82,4.82,0,0,0-.5.27,4.75,4.75,0,0,0-.85.69.9.9,0,0,0-.18.23l0,0a.69.69,0,0,0,.06.24,3.64,3.64,0,0,0,.62-.33A5.18,5.18,0,0,0,21.76,29.48Z"/><path class="cls-2" d="M40,22.15a.34.34,0,0,0-.22,0,1,1,0,0,0-.37.35.93.93,0,0,0-.2.38c0,.06-.15.4-.11.45s.41-.13.51-.15a.88.88,0,0,0,.41-.33.78.78,0,0,0,.14-.49A.26.26,0,0,0,40,22.15Z"/></g></g></svg>